# xmcd CD database file
#
# Track frame offsets:
#	150
#	19501
#	39686
#	58983
#
# Disc length: 1054 seconds
#
# Revision: 4
# Processed by: cddbd v1.5.2PL0 Copyright (c) Steve Scherf et al.
# Submitted via: CDex 1.70beta2
#
DISCID=2f041c04
DTITLE=ALI PROJECT - 跪いて足をお嘗め
DYEAR=2007
DGENRE=Anime
TTITLE0=跪いて足をお嘗め
TTITLE1=最愛なる魔王さま
TTITLE2=跪いて足をお嘗め(Instrumental)
TTITLE3=最愛なる魔王さま(Instrumental)
EXTD=YEAR: 2007
EXTT0=
EXTT1=
EXTT2=
EXTT3=
PLAYORDER=
